<svg data-name="Layer 1" xmlns="http://www.w3.org/2000/svg" viewBox="0 0 441.42 340.58"><path d="M18.82 19.16h405v305h-405zm0-2.87C12.21 20.32 2.6 14.57 4.26 0 17.45 1.31 22 11.11 18.82 16.29zM9 24.11c3.44-2 9.88.54 7.3 5.22-2 3.6-9.38 2.42-9.25-2.06A3.75 3.75 0 019 24.11zM33.24 8.6c1.59 3.68-1.81 9.74-6.11 6.58-3.32-2.43-1.2-9.62 3.23-8.91a3.73 3.73 0 012.88 2.33zM425.47 19c-4-6.6.43-14.29 15.95-15.18-.42 15.1-10.76 18.33-15.95 15.18zm-7.82-9.83c2.05 3.44-.53 9.89-5.21 7.31-5.97-3.29 1.67-13.27 5.21-7.31zm15.56 24.38c-4.28 2.09-9.22-3-6.24-7 3.15-4.29 9.28-.67 8.52 4.07a4 4 0 01-2.28 2.93zm-8.38 291.86c6.39-4.35 14.3-.29 16 15.16-15.11.32-18.83-9.82-16-15.16zm9.45-8.3c-3.34 2.22-9.9 0-7.57-4.84 2.99-6.13 13.34 1 7.57 4.84zm-23.56 16.77c-2.31-4.17 2.52-9.36 6.73-6.59 4.44 2.93 1.13 9.24-3.64 8.72a4 4 0 01-3.09-2.13zM17 324.14c3.55 6.87-1.45 14.23-17 14 1.52-15.01 12.05-17.49 17-14zm7.08 10.39c-1.79-3.58 1.25-9.83 5.73-6.92 5.72 3.71-2.62 13.12-5.73 6.92zM10.31 309.1c4.42-1.78 9 3.64 5.72 7.48-3.45 4.05-9.3 0-8.2-4.67a4 4 0 012.48-2.81z" fill="#c572d9"/></svg>