<svg viewBox="0 0 90 110" xmlns="http://www.w3.org/2000/svg" fill-rule="evenodd" clip-rule="evenodd" stroke-linejoin="round" stroke-miterlimit="2"><path d="M64.006 59.398c.069-15.301.223-30.6.314-45.898-.088-2.349.11-4.699.59-7 .74-3 2.67-6.2 5-6.48 2.92-.35 3.58 3.06 3.6 6.53.07 12.056.142 24.113.216 36.167 1.375-.563 4.349-1.364 4.834-1.757 1.93-1.59 1.6-1.63 2.09-4.12.59-3 0-6.16.61-9.15.46-2.45 1.56-11.2 5.64-10.53 4.08.67 2.78 13.92 2.36 16.93-.63 4.37-.2 10.15-3.25 13.74-2.726 3.198-7.953 3.924-12.222 5.045.104 16.802.211 33.607.322 50.415 5.024 2.126 10.61 6.3 10.61 6.3H46.38s9.447-4.537 17.218-6.56c-.453-8.664.372-26.877.372-28.98 0-1.94.002-3.88.006-5.82-4.702-1.514-10.046-2.727-12.516-7.14-2.38-4.2-1.65-10.02-2.29-14.49-.67-4.58-2.56-10.47-.56-15a3.643 3.643 0 011.64-1.94c5.67-2.71 6.08 9.06 6.34 12 .32 3.57.3 7.21.83 10.76.641 4.25 2.992 5.858 6.586 6.978zM7.733 78.767c.038-5.897.074-11.901.107-18.307.01-1.76.34-3.46 1.77-3.31 1.16.14 2.1 1.77 2.46 3.28.221 1.167.318 2.353.29 3.54.053 8.979.144 17.95.165 26.927 1.302-.567 2.143-1.432 2.405-3.237.41-2.82.43-5.75.57-8.59 0-.82-.23-1.55.49-2.14 1-.77 1.93-.16 2.21.9 1 3.83 1.61 10.66-.36 14.27-1.075 1.975-3.225 2.664-5.29 3.333.104 3.185.568 13.754-.23 14.157H7.53c.058-9.083.115-17.358.17-25.67-2.091-.579-4.685-.994-5.93-2.54-1.49-1.85-1.28-4.78-1.58-7a38.211 38.211 0 01.3-9.9c.13-1.09 0-7.38 2.31-5.8a3 3 0 011 1.78c.82 3.27.33 6.7.1 10-.16 2.37-.49 5.75 1.51 7.43.241.203 1.645.594 2.323.877z" fill="#371a4a" fill-rule="nonzero"/></svg>