<svg id="Layer_1" data-name="Layer 1" xmlns="http://www.w3.org/2000/svg" viewBox="0 0 362.69 187.99"><defs><style>.cls-1{fill:#ffac00}</style></defs><path class="cls-1" d="M98.1 26.59H68.94v32.19l-2.36 2.81 2.36 6.54v45.21H55.05l-10.97-2.61-2.13 2.61H36.1V26.59H9.84l-3.07-4.6V0h61.06l2.97 1.12L73.75 0H98.1v26.59z"/><path class="cls-1" d="M160 60.09a43 43 0 018.47-18.77q11.29-14.8 31.53-17.76a43.8 43.8 0 0115.4.45l3.21 2.52 2.08-1.06a48.28 48.28 0 015.21 2.14l3.5 24q-1.89-.39-6.08-1.69a47.49 47.49 0 00-8.17-1.81 33.43 33.43 0 00-8.88.22q-8.48 1.23-12.87 7.62a19.52 19.52 0 00-3.23 14.38 24.27 24.27 0 00.89 3.86l-.32 4.48 2.77.5a18.88 18.88 0 003.78 4q5.94 4.71 14.58 3.45a36.21 36.21 0 007.31-1.82 42.92 42.92 0 005.09-2.16c1.14-.6 2.77-1.62 4.89-3l4.58 2.69 2.82 18.37a43.28 43.28 0 01-23.61 11.61q-20.05 2.93-35.23-8.09c-10.12-7.42-15.06-14.42-16.86-26.68zM128.43 71.8h-3.31l-1.41 1.2-3.5-1.16h-17.32v-6.3q0-8.73 3.46-13.51a10.87 10.87 0 019.23-4.78 11.11 11.11 0 019.31 4.75q3.54 4.78 3.54 13.51zm17.22-35q-12.12-12.6-30.07-12.6A44 44 0 00103 26l-6.2 4-2.74-.05a42 42 0 00-8.49 6.89q-12 12.6-12 35V112h27.35l2-2.56v-17.5h25.54v18.71l1.48 1.39h26.65l1.2-3V79.43l-.85-6.19.24-6.55c-1.08-12.51-3.46-21.46-11.53-29.89z"/><path class="cls-1" d="M289 84.87q-4.26 6.93-10.19 6.93-5.76 0-10-6.92t-4.28-16.64a31 31 0 014.28-16.64q4.27-6.91 10-6.92 5.94 0 10.22 6.92a26 26 0 011.87 3.64l2.43 3-.81 2.16a36.92 36.92 0 01.79 7.84A31 31 0 01289 84.87zm21.69-48.35a45.46 45.46 0 00-63.68 0l-.68 2.94-2.41.42A45 45 0 00247 100a43.5 43.5 0 0031.8 13.1 47.8 47.8 0 007.92-.63l9.15-3.91 3.52-.27a46.19 46.19 0 0011.33-8.29 44.53 44.53 0 000-63.43z"/><path d="M362.69 121.82l-10.39 18.72-2 2-1 3.46-8.3 14.84v26h-3.22l-1.33-1-2.44 1h-10.34v-26l-20.83-37.55 1.39-1.47h16.71l11.42 22.34 4.73-9.35 2-2.4.24-1.93 4.39-8.66zm-73.34 32.58h-1.53l-1.22.73-2-.73h-10.36v-9.17c0-3.45.68-6.11 2-8a6.46 6.46 0 015.47-2.83 6.58 6.58 0 015.51 2.83c1.39 1.89 2.09 4.55 2.09 8zm10.2-26.19a24.92 24.92 0 00-35.56 0q-7.11 7.46-7.12 20.73v37.94h17.37v-19l1.8-1.58h13.28v19l2.58 1.6h14.78v-31.3l-.93-2.44.93-2V149q.03-13.33-7.13-20.79zm-68 40.59q-3.75 6-9.12 6h-2.24v-39.65l2.24-1.33q5.37 0 9.12 6.05a27 27 0 013.76 14.53 26.51 26.51 0 01-3.76 14.4zm13.66-37.47q-8.53-9.53-20.73-9.53h-8.29l-1 1.11-2-1.11h-10.36v62.8l1.55 2.26h20.1q12.09 0 20.68-9.51a33.7 33.7 0 004.22-5.78l1.31-4.85 1.24-.8a35.89 35.89 0 001.81-11.54 33.28 33.28 0 00-8.53-23.05zm-45.51 36.33a18 18 0 01-7 14.68 25 25 0 01-16.15 5.66q-11.12 0-20.09-8.78l1.12-6.78 1.22-.58-.81-1.92.62-3.69q9.75 7.71 18.43 7.71a5.58 5.58 0 003.56-1.52 4.69 4.69 0 001.8-3.75q0-2.34-2.73-4.19a40.42 40.42 0 00-6.68-3.57c-.9-.38-1.8-.8-2.7-1.23l-3.6-2.88-1.6.12a19.59 19.59 0 01-6.68-6.59 18.48 18.48 0 01-2.73-10.14q0-8.19 6.83-13.8c1.87-1.54 12.28-5.61 15.8-5.61q11 0 20.09 9.56l-4.58 8.62s-2.6 1-3.3.45a24.79 24.79 0 00-4.21-2.64 18.83 18.83 0 00-4.54-1.7 22.35 22.35 0 00-3.56-.25 5.39 5.39 0 00-3.71 1.52 4.31 4.31 0 00-1.65 3.17 4.8 4.8 0 002 3.65 17.2 17.2 0 005 2.88 63.78 63.78 0 016.44 3 58.55 58.55 0 016.44 4 16.82 16.82 0 015 6 18.35 18.35 0 011.97 8.6zm-86.14 19.22V175.2l.73-1.56-.73-3.54v-48.28h3.72l1.66 1.06 1.44-1.06h32.2v12h-21.65v11.9h20l1.6 1.32v10.58h-21.6V175h10.63l1.44.44 2.66-.44h6.92v11.9zm-6.25-27.08a35.18 35.18 0 01-2.06 12.53 24.7 24.7 0 01-40.67 8.2q-7.11-7.46-7.12-20.73v-38h14.82l2.55 1.94v39.71c0 3.45.68 6.11 2 8a6.46 6.46 0 005.47 2.83l5.23-.32.28-2.51c1.39-1.89 2.09-4.55 2.09-8V121.8h9.16l3.44.5 2-.5h2.78zM52 133.82H34.72v53.06h-3.35l-1.66-.71-2.22.71H17.36V144.6l.49-1-.49-4.1v-5.68H0v-10.94l1.89-1.06H52v3.72l-.77 2.66.77 1.22z" fill="#ff7b00"/></svg>