<svg viewBox="0 0 500 103" xmlns="http://www.w3.org/2000/svg" fill-rule="evenodd" clip-rule="evenodd" stroke-linejoin="round" stroke-miterlimit="2"><path d="M272.031.379C315.111 8.431 384.418 21.975 398.2 26.7l3.6 32.5 4.4 5.6.1 21.2-3.2 3.1s1.5-12.1-4.5-12.1c-.196 0-.39.013-.58.039 1.373 1.653 2.432 4.116 2.28 7.761-.196 4.709-2.269 7.349-4.331 8.816 26.302 1.804 54.355 4.302 76.381 6.419A3453.977 3453.977 0 01500 102.8l-500-.1c11.9-.1 39.7-2.3 74.6-3.3 7.2-.2 14.7-3.8 22.4-4 5.3-.1 10.6 3.1 16 2.9 64.141-1.923 139.118-4.34 184.205-5.831a14.773 14.773 0 01-1.753-4.227l-32.751.357-.001.001c-1 .8-18-5.6-17.4-6.2l1.634-21.239c-3.353.199-6.874-.599-10.534-2.361 0 0 .3-15 .7-18 .4-3 4.7-3.4 4.7-3.4l.2-5.2 7.122.509L251 8.3c3.9-2.6 9.8-5.3 19-8.3l2.031.379zm46.197 75.672c2.018 1.879 3.798 4.981 3.572 10.049-.1 2.244-.558 4.083-1.225 5.588 4.666-.158 8.488-.289 11.325-.388 12.047-.404 29.494.205 48.858 1.344-1.181-1.296-2.091-2.688-2.704-4.192-19.235-1.606-36.491-1.836-51.054-.152 0 0-1.607-9.796-8.772-12.249z" fill="#371a4a" fill-rule="nonzero"/><path d="M306.4 18.9l60.8 11c.5 0-2 26.9-2 25.5 0-1.5-60.5-6.4-60.4-6.1.4 1.3 2.6-30 1.6-30.4z" fill="#ffac00" fill-rule="nonzero"/><path d="M380.1 26.9L365.8 47l.2-3.1 11.51-16.402L367.1 29.9l-60.7-11 13.2-2.9 60.5 10.9z" fill="#66277b" fill-rule="nonzero"/><path d="M319.6 16l-19.3 28 .4 2.9 22-30.8-3.1-.1zm151.8 85.1l-2.3-9.5 3 7.3.5-5.8.8 5.5 2.2-3.8-1.6 7.2-2.6-.9z" fill="#371a4a" fill-rule="nonzero"/><path d="M382.543 38.84c-.242 6.096-.666 11.826-1.41 16.915l8.845 1.177a73.144 73.144 0 001.395-16.773l-8.83-1.319zM394.55 40.19c.195 5.983-.176 11.744-1.295 17.214l6.425.791-1.725-17.374-3.405-.631z" fill="#ffab00" fill-rule="nonzero"/></svg>